<?xml version="1.0" standalone="no"?>
<!DOCTYPE svg PUBLIC "-//W3C//DTD SVG 20010904//EN"
 "http://www.w3.org/TR/2001/REC-SVG-20010904/DTD/svg10.dtd">
<svg version="1.0" xmlns="http://www.w3.org/2000/svg"
 width="500.000000pt" height="500.000000pt" viewBox="0 0 500.000000 500.000000"
 preserveAspectRatio="xMidYMid meet">
<metadata>
Created by potrace 1.14, written by Peter Selinger 2001-2017
</metadata>
<g transform="translate(0.000000,500.000000) scale(0.100000,-0.100000)"
fill="#000000" stroke="none">
<path d="M108 4891 l-108 -108 0 -126 c0 -127 5 -161 21 -151 5 3 9 0 9 -6 0
-6 4 -8 10 -5 5 3 10 1 10 -6 0 -8 6 -5 13 5 13 17 14 17 30 1 9 -9 17 -12 17
-6 0 6 -9 15 -20 21 -16 9 -18 15 -9 37 6 16 6 29 1 31 -5 1 27 39 70 83 43
44 76 85 72 90 -3 5 1 9 8 9 7 0 63 50 123 110 61 61 116 108 122 105 7 -2 13
0 13 4 0 17 -32 21 -153 21 l-122 0 -107 -109z m203 69 c38 -21 17 -70 -31
-70 -49 0 -70 53 -27 70 30 12 35 12 58 0z"/>
<path d="M532 4979 c-7 -12 -12 -22 -10 -22 2 -1 13 -8 25 -14 30 -17 38 -16
23 2 -19 22 3 44 24 25 9 -7 13 -16 10 -21 -3 -5 3 -6 12 -2 12 4 15 3 10 -5
-4 -7 -15 -12 -24 -12 -15 -1 -15 -2 1 -11 14 -8 23 -7 38 6 15 15 21 15 34 5
8 -7 12 -17 8 -24 -4 -6 1 -5 10 3 12 9 17 10 17 2 0 -18 -26 -24 -49 -11 -12
6 -21 7 -21 3 1 -4 24 -19 52 -33 68 -34 75 -36 56 -17 -9 10 -21 17 -27 17
-16 0 -13 17 4 24 8 3 15 1 15 -4 0 -6 7 -10 16 -10 8 0 24 -5 35 -11 20 -10
20 -11 3 -30 -9 -10 -12 -19 -7 -19 6 0 13 7 17 15 3 8 12 15 20 15 8 0 21 -7
30 -15 8 -8 19 -15 25 -15 17 0 13 -18 -6 -29 -10 -6 -13 -11 -7 -11 6 0 17 6
23 14 10 12 16 12 39 0 15 -8 33 -14 40 -14 14 0 16 -16 2 -25 -5 -3 -10 -11
-10 -18 0 -6 6 -2 14 9 14 18 17 18 103 -25 48 -25 90 -48 93 -51 3 -4 16 -11
30 -15 14 -4 42 -19 62 -31 21 -13 42 -24 48 -24 13 0 13 -13 -1 -27 -13 -13
-64 10 -73 33 -3 8 -10 13 -16 9 -5 -3 -27 3 -48 14 -22 11 -52 18 -68 17 -16
-2 -35 1 -43 8 -12 9 -13 6 -8 -15 5 -19 1 -34 -13 -51 l-19 -25 25 5 c13 2
35 17 48 33 16 18 26 24 29 16 2 -6 -9 -26 -26 -44 -24 -26 -28 -35 -18 -47
16 -19 -3 -30 -29 -16 -25 13 -27 2 -2 -16 16 -12 16 -13 -1 -19 -9 -4 -24 -2
-31 4 -9 7 -17 8 -20 3 -3 -6 3 -12 14 -15 38 -10 23 -30 -17 -23 -33 5 -35 4
-15 -6 42 -21 15 -41 -33 -23 -17 6 -16 4 3 -10 29 -21 15 -43 -16 -26 -33 17
-39 12 -12 -9 21 -16 23 -20 8 -25 -9 -4 -26 -2 -37 5 -13 6 -21 7 -21 1 0 -5
9 -13 21 -16 16 -5 18 -10 8 -21 -8 -10 -16 -11 -29 -4 -25 13 -40 12 -17 -1
28 -17 22 -40 -10 -34 -16 3 -22 2 -15 -1 15 -7 16 -34 1 -34 -6 0 -19 5 -30
10 -24 13 -25 2 -1 -16 27 -20 2 -40 -29 -24 -13 7 -21 9 -16 4 4 -4 -9 -25
-29 -45 -29 -30 -41 -36 -55 -29 -10 6 -24 7 -33 4 -23 -9 -39 5 -25 22 6 8 9
17 6 21 -4 3 -9 -2 -13 -11 -7 -18 -29 -21 -39 -6 -4 6 -1 17 5 25 7 8 9 15 5
15 -4 0 -13 -7 -20 -17 -16 -22 -37 -7 -30 20 6 21 6 21 -9 3 -13 -16 -18 -17
-31 -6 -11 9 -13 16 -5 24 5 5 10 15 10 20 0 6 -7 3 -15 -8 -14 -18 -16 -18
-50 -2 -30 14 -35 21 -29 39 6 19 5 20 -9 8 -14 -11 -22 -11 -53 4 -29 13 -33
19 -23 31 14 16 -2 19 -18 3 -17 -17 -35 -1 -28 24 6 21 5 21 -9 3 -19 -23
-39 -12 -30 17 5 18 4 20 -7 10 -14 -14 -49 -18 -49 -5 0 4 5 13 12 20 9 9 9
12 0 12 -7 0 -12 -4 -12 -10 0 -5 -9 -10 -20 -10 -21 0 -27 15 -10 25 5 3 10
11 10 17 0 6 -9 3 -19 -6 -14 -13 -24 -15 -37 -8 -11 6 -13 11 -5 16 6 4 11
12 11 19 0 8 -3 8 -12 -1 -16 -16 -41 -15 -35 2 3 8 -5 18 -19 25 -34 15 -35
15 -32 -18 1 -16 5 -28 9 -25 6 3 48 -17 156 -75 25 -13 25 -15 9 -27 -15 -11
-22 -10 -42 3 -15 9 -24 11 -24 4 0 -6 5 -11 11 -11 24 0 2 -35 -23 -37 -32
-2 -45 12 -28 32 16 19 4 52 -20 58 -17 4 -18 2 -10 -14 9 -15 6 -20 -15 -25
-41 -10 -26 -33 50 -73 39 -21 135 -73 215 -116 80 -43 296 -159 480 -257 184
-99 350 -189 367 -200 29 -17 33 -18 33 -4 0 9 -16 24 -34 33 l-35 16 20 25
c25 32 25 52 -1 45 -12 -3 -22 1 -26 11 -3 9 -10 13 -15 10 -5 -3 -5 -13 1
-23 5 -10 6 -21 3 -25 -13 -13 -23 -5 -24 22 -2 26 -2 25 -8 -5 -4 -25 -9 -30
-20 -24 -12 8 -12 15 2 47 8 22 21 38 27 36 6 -1 9 2 5 8 -5 8 -11 7 -21 -1
-11 -9 -21 -9 -40 -1 -23 11 -24 10 -14 -8 9 -17 7 -22 -12 -29 -24 -9 -48 -4
-48 9 0 12 34 74 45 82 14 10 27 -2 20 -21 -5 -12 -3 -13 6 -4 9 9 25 5 71
-18 33 -17 61 -29 62 -27 1 2 8 17 16 33 28 58 52 73 122 73 35 0 68 1 73 2
21 5 29 -1 15 -10 -13 -8 -13 -10 0 -10 8 0 28 14 45 30 29 28 34 30 58 19 33
-15 33 -20 2 -49 -14 -13 -22 -27 -18 -31 7 -7 140 -59 150 -59 2 0 2 4 -2 9
-3 5 -1 12 5 16 16 10 11 33 -9 40 -30 9 -61 41 -61 63 0 12 19 34 50 58 28
21 50 43 50 49 0 5 13 19 29 30 16 10 28 22 26 25 -2 3 0 12 5 20 7 12 15 12
47 -4 41 -20 97 -30 89 -17 -3 5 -19 14 -36 21 -34 14 -43 45 -10 35 16 -5 20
-2 20 17 0 19 -2 20 -10 8 -9 -13 -11 -13 -19 -1 -5 8 -7 20 -4 28 6 15 33 18
33 3 0 -5 14 -16 30 -25 17 -9 30 -13 30 -10 0 3 10 -3 22 -15 17 -16 19 -23
10 -32 -7 -7 -12 -8 -12 -2 0 5 -14 15 -31 23 -26 12 -33 11 -45 -1 -13 -13
-8 -18 36 -42 28 -15 57 -25 65 -22 9 3 12 0 8 -10 -6 -17 -7 -17 -42 1 -26
13 -29 13 -27 -3 0 -9 17 -26 36 -38 31 -19 37 -19 53 -6 18 16 24 52 8 52
-10 0 -34 61 -26 68 3 3 5 1 5 -4 0 -5 6 3 14 17 8 17 13 55 12 99 l-1 72 -74
39 c-40 22 -78 38 -85 35 -7 -3 -7 -5 2 -5 10 -1 10 -4 0 -15 -7 -8 -16 -12
-20 -9 -4 2 -5 -3 -2 -11 8 -20 -5 -20 -30 -1 -16 13 -17 16 -3 43 14 29 14
30 -19 46 -31 14 -49 7 -23 -9 17 -11 4 -28 -24 -32 -29 -4 -35 13 -17 47 9
16 5 22 -19 35 -38 19 -47 19 -30 -1 11 -14 10 -18 -6 -30 -40 -29 -65 -9 -39
31 9 14 15 27 13 29 -16 14 -69 35 -69 27 0 -5 5 -11 12 -13 21 -7 0 -38 -27
-38 -28 0 -30 6 -15 44 8 23 6 28 -20 41 -27 14 -44 5 -20 -10 8 -5 7 -11 -1
-21 -13 -16 -28 -18 -48 -5 -12 8 -13 14 -2 37 13 30 8 38 -29 49 -22 7 -23 6
-12 -8 18 -21 7 -37 -23 -37 -26 0 -44 18 -28 29 25 16 22 41 -7 56 -35 18
-48 19 -32 3 19 -19 14 -35 -15 -42 -25 -7 -52 12 -34 24 5 3 11 14 15 26 5
16 0 23 -19 32 -34 16 -33 16 -27 -13 3 -19 0 -25 -14 -25 -11 0 -25 4 -33 9
-12 8 -12 13 2 34 15 23 15 24 -19 40 -19 9 -34 12 -34 7 0 -6 4 -10 9 -10 15
0 5 -35 -10 -36 -22 -1 -53 17 -42 25 24 16 22 41 -6 55 -27 15 -28 14 -23
-10 4 -21 1 -24 -27 -24 -17 0 -31 5 -31 11 0 5 5 7 10 4 18 -11 11 47 -7 61
-26 19 -49 19 -33 -1 15 -18 5 -35 -20 -35 -26 0 -32 14 -21 44 9 22 7 27 -19
39 l-29 15 6 -29 c5 -26 3 -29 -21 -29 -22 0 -25 4 -24 26 2 15 9 29 17 32 9
3 2 11 -20 23 -42 22 -55 24 -39 4 16 -20 6 -45 -19 -45 -27 0 -33 13 -21 44
9 23 7 26 -14 26 -13 0 -26 -6 -29 -14 -7 -17 -39 -15 -45 2 -7 21 -66 14 -80
-9z m818 -409 c0 -5 -7 -10 -15 -10 -8 0 -15 5 -15 10 0 6 7 10 15 10 8 0 15
-4 15 -10z m-129 -10 c25 -14 24 -19 -16 -64 -38 -41 -41 -51 -23 -62 7 -5 8
-3 3 5 -5 8 8 29 35 56 38 39 45 42 66 33 13 -6 24 -16 24 -21 0 -5 -20 -30
-45 -55 -25 -24 -45 -47 -45 -50 0 -3 -40 -47 -88 -96 -48 -50 -104 -111 -124
-136 l-37 -45 -66 33 -66 32 26 33 c69 83 269 286 277 281 4 -3 7 -2 6 3 -4
10 34 62 45 63 5 0 17 -5 28 -10z m189 -11 c0 -5 7 -9 15 -9 8 0 15 -5 15 -11
0 -5 -5 -7 -12 -3 -6 4 -8 3 -5 -4 4 -5 15 -8 26 -5 21 5 81 -22 81 -38 0 -6
-5 -7 -12 -3 -7 5 -8 3 -3 -5 5 -9 10 -10 18 -2 7 7 18 6 36 -3 14 -8 43 -22
64 -32 20 -10 37 -23 37 -28 0 -5 3 -7 6 -3 9 8 64 -21 64 -34 0 -6 6 -7 13
-3 6 4 4 -2 -6 -12 -15 -16 -19 -17 -27 -4 -5 8 -10 11 -10 6 0 -5 -8 -2 -17
6 -10 9 -39 25 -65 37 -30 14 -48 28 -48 39 0 12 -3 13 -8 5 -6 -10 -18 -7
-50 8 -36 18 -41 24 -30 37 11 13 11 14 -8 2 -28 -17 -87 11 -77 38 6 14 4 15
-8 5 -11 -9 -20 -8 -38 1 -22 12 -23 14 -6 23 20 11 55 6 55 -8z m-28 -61 c22
-13 47 -38 47 -48 0 -3 -26 -34 -59 -69 -58 -63 -59 -64 -89 -51 -49 20 -58
37 -32 63 11 13 21 30 21 37 0 18 60 80 77 80 7 0 23 -6 35 -12z m195 -115
c50 -27 64 -45 44 -58 -5 -3 -36 9 -68 26 -71 39 -66 35 -58 48 10 17 25 13
82 -16z m-1311 -63 c10 0 14 -5 10 -16 -3 -8 -2 -13 3 -10 13 8 71 -17 71 -31
0 -18 -20 -27 -33 -14 -17 17 -27 13 -24 -11 1 -17 -4 -24 -22 -26 -35 -5 -46
11 -27 41 16 23 15 25 -8 41 -34 21 -37 20 -30 -8 4 -19 1 -26 -16 -31 -12 -4
-27 -2 -32 3 -14 14 8 68 34 86 17 12 22 12 39 -5 10 -10 26 -19 35 -19z m958
21 c20 -22 68 -35 115 -32 29 3 33 0 29 -17 -7 -24 33 -47 50 -30 13 13 35 0
28 -17 -6 -17 44 -40 54 -24 10 15 33 1 26 -16 -2 -7 2 -16 11 -19 20 -8 76
42 69 61 -6 16 6 17 20 3 8 -8 22 2 48 31 34 37 40 40 62 30 13 -6 24 -15 24
-21 0 -6 -55 -71 -122 -145 l-122 -134 -29 16 -29 15 23 24 c28 29 37 30 47 3
8 -20 8 -20 26 -1 17 19 16 21 -6 36 l-23 16 26 26 c24 24 27 25 43 9 16 -16
18 -16 36 0 25 23 25 41 1 54 -14 8 -24 4 -46 -19 -16 -17 -31 -28 -34 -25 -2
3 -17 -7 -33 -22 -25 -24 -30 -25 -54 -14 l-27 12 24 25 c17 18 20 27 12 35
-9 9 -18 5 -35 -16 -21 -24 -26 -26 -50 -14 l-27 12 20 28 c27 39 4 52 -26 15
-21 -26 -24 -27 -49 -14 l-27 14 21 26 c25 32 26 47 3 26 -27 -23 -73 -32 -73
-14 0 8 -16 20 -35 26 -36 12 -46 35 -23 58 17 17 32 15 52 -7z m631 -30 c3
-6 -4 -15 -15 -21 -19 -10 -20 -10 -8 9 15 24 15 24 23 12z m-1465 -64 c0 -8
-3 -17 -7 -21 -4 -4 -7 -19 -8 -34 0 -20 -6 -28 -23 -30 -32 -5 -38 22 -12 63
21 35 50 47 50 22z m757 0 c7 0 14 -6 17 -14 3 -7 15 -13 26 -13 11 0 20 -5
20 -11 0 -6 -9 -8 -20 -4 -12 4 -27 1 -35 -5 -18 -15 -38 -3 -31 17 4 9 -2 22
-11 30 -17 14 -17 14 2 8 11 -4 25 -8 32 -8z m767 -10 c-4 -13 -9 -14 -19 -4
-11 10 -10 13 4 18 20 8 23 6 15 -14z m-1479 -7 c4 -6 1 -17 -5 -25 -9 -11
-16 -12 -30 -2 -14 8 -16 15 -8 24 13 16 34 17 43 3z m45 -31 c0 -5 4 -8 9 -5
4 3 17 -1 27 -9 15 -11 16 -16 7 -26 -10 -10 -18 -10 -38 -1 -22 10 -24 9 -22
-11 1 -16 -4 -23 -22 -25 -34 -5 -42 16 -19 54 19 32 58 48 58 23z m386 -23
c18 -14 17 -17 -27 -62 -43 -42 -48 -45 -70 -34 -13 7 -26 14 -28 17 -7 5 82
93 94 93 6 0 20 -7 31 -14z m-269 -54 c-14 -13 -18 -13 -32 -2 -15 12 -17 11
-13 -9 4 -27 -21 -47 -46 -38 -23 9 -20 22 15 61 30 35 31 35 61 20 28 -14 29
-17 15 -32z m331 22 c20 -14 22 -41 2 -29 -5 3 -11 1 -15 -5 -4 -6 -10 -8 -14
-6 -4 3 -8 -1 -8 -9 0 -13 4 -12 19 2 31 27 20 1 -13 -34 -31 -31 -33 -32 -61
-17 l-30 16 22 23 c13 14 27 22 33 18 6 -4 7 -1 3 6 -7 11 19 51 33 51 4 0 17
-7 29 -16z m162 -10 c0 -2 -7 -4 -15 -4 -8 0 -15 4 -15 10 0 5 7 7 15 4 8 -4
15 -8 15 -10z m-405 -60 c-13 -10 -23 -10 -37 -3 -17 9 -18 7 -12 -17 6 -24 5
-26 -15 -21 -11 3 -19 1 -15 -4 3 -5 0 -9 -6 -9 -16 0 -24 30 -11 43 6 6 11
18 11 27 0 33 19 38 62 17 37 -19 39 -22 23 -33z m305 33 c0 -18 36 -38 56
-30 12 4 15 3 10 -5 -10 -16 6 -15 24 1 8 6 4 0 -9 -15 -27 -31 -65 -39 -54
-12 7 19 -17 37 -32 24 -6 -5 -17 -5 -24 -1 -11 7 -10 12 0 30 15 23 29 28 29
8z m-226 -51 c35 -16 37 -19 24 -33 -12 -12 -20 -13 -36 -4 -29 16 -33 14 -26
-13 4 -18 1 -25 -14 -28 -30 -8 -45 6 -37 33 10 33 35 71 43 67 4 -2 25 -12
46 -22z m216 -17 c33 -16 60 -34 60 -38 0 -4 -9 -16 -19 -26 -19 -16 -22 -16
-78 16 -32 18 -60 34 -62 36 -4 3 29 43 35 43 2 0 31 -14 64 -31z m-150 -29
c0 -5 6 -7 14 -4 21 8 28 -12 10 -27 -14 -11 -18 -11 -29 4 -10 14 -14 15 -18
4 -3 -8 0 -20 6 -26 16 -16 -5 -34 -34 -29 -31 4 -30 20 1 58 24 29 50 40 50
20z m550 -14 c0 -8 -9 -14 -19 -13 -15 1 -17 4 -9 14 14 17 28 16 28 -1z
m-432 -55 c-2 -8 -9 -16 -17 -19 -8 -3 -11 0 -8 5 3 5 0 10 -9 10 -9 0 -13 -9
-12 -26 3 -22 -2 -27 -25 -29 -19 -2 -29 2 -34 14 -4 10 -2 19 5 22 7 2 12 8
12 14 0 5 10 18 22 27 17 14 26 15 45 7 13 -6 22 -17 21 -25z m169 12 c10 -2
24 -5 31 -5 13 -1 16 -11 6 -21 -10 -10 -84 35 -77 46 3 5 9 4 13 -4 5 -7 17
-14 27 -16z m470 -69 c-7 -7 -57 18 -57 28 0 5 14 1 31 -7 17 -9 29 -19 26
-21z"/>
<path d="M1055 4409 c-4 -6 -5 -12 -2 -15 2 -3 7 2 10 11 7 17 1 20 -8 4z"/>
<path d="M1030 4286 c0 -2 7 -7 16 -10 8 -3 12 -2 9 4 -6 10 -25 14 -25 6z"/>
<path d="M905 4249 c-4 -6 -5 -12 -2 -15 2 -3 7 2 10 11 7 17 1 20 -8 4z"/>
<path d="M960 4206 c0 -2 7 -7 16 -10 8 -3 12 -2 9 4 -6 10 -25 14 -25 6z"/>
<path d="M1352 4389 c-19 -31 -9 -33 18 -4 16 17 19 25 9 25 -8 0 -20 -9 -27
-21z"/>
<path d="M1241 4356 c10 -9 69 -36 69 -32 0 6 -55 36 -66 36 -4 0 -5 -2 -3 -4z"/>
<path d="M1175 4321 c-3 -5 -2 -12 3 -15 5 -3 9 1 9 9 0 17 -3 19 -12 6z"/>
<path d="M1650 4220 c0 -5 5 -10 11 -10 5 0 7 5 4 10 -3 6 -8 10 -11 10 -2 0
-4 -4 -4 -10z"/>
<path d="M1487 4029 c7 -7 15 -10 18 -7 3 3 -2 9 -12 12 -14 6 -15 5 -6 -5z"/>
<path d="M819 4133 c-13 -16 -12 -17 4 -4 9 7 17 15 17 17 0 8 -8 3 -21 -13z"/>
<path d="M767 4089 c7 -7 15 -10 18 -7 3 3 -2 9 -12 12 -14 6 -15 5 -6 -5z"/>
<path d="M930 4006 c0 -3 14 -12 30 -21 17 -9 30 -13 30 -11 0 3 -13 12 -30
21 -16 9 -30 13 -30 11z"/>
<path d="M1972 4468 c3 -502 4 -535 22 -564 10 -17 33 -40 50 -50 29 -18 57
-19 446 -19 472 0 465 -1 501 78 17 40 19 73 19 565 l0 522 -25 0 -25 0 -1
-182 c0 -185 -2 -222 -14 -258 -7 -21 -25 -28 -25 -10 0 15 -28 12 -37 -4 -5
-9 -32 -15 -76 -18 -45 -3 -71 -9 -78 -19 -5 -7 -9 -10 -9 -5 0 5 -7 3 -15 -4
-13 -10 -19 -10 -35 5 -24 22 -90 27 -124 10 -23 -13 -31 -9 -23 13 1 4 5 6 9
5 15 -5 19 38 4 53 -9 8 -16 27 -16 41 0 14 -7 31 -16 37 -16 12 -9 51 7 40 5
-3 9 -1 9 3 0 5 -9 14 -20 21 -11 7 -20 18 -20 25 0 7 7 3 15 -7 8 -11 18 -17
21 -13 4 4 1 13 -5 21 -10 12 -8 16 8 21 21 6 30 35 11 35 -5 0 -10 12 -10 28
0 19 -3 23 -9 13 -5 -7 -7 -21 -6 -30 1 -9 0 -10 -2 -2 -4 12 -6 12 -14 0 -6
-10 -9 -8 -9 9 0 13 4 20 10 17 6 -4 10 8 11 27 0 27 2 30 9 13 7 -16 9 -14 9
15 1 26 -2 31 -9 20 -5 -8 -10 -10 -11 -5 -4 25 -7 32 -17 58 -12 28 -32 37
-32 13 0 -10 -16 -12 -67 -10 -37 2 -69 8 -71 14 -2 5 -26 10 -53 10 -37 0
-49 -4 -49 -15 0 -12 -8 -14 -42 -9 -24 4 -47 10 -52 15 -6 5 -41 9 -78 9
l-69 0 3 -532z m256 480 c7 -7 12 -37 12 -68 0 -31 -5 -61 -12 -68 -12 -12
-95 -16 -122 -6 -20 8 -23 123 -4 142 16 16 110 16 126 0z m220 0 c7 -7 12
-37 12 -68 0 -31 -5 -61 -12 -68 -7 -7 -38 -12 -70 -12 -46 0 -59 4 -68 19
-16 30 -12 107 6 125 19 19 114 22 132 4z m-195 -182 c-3 -9 -31 -10 -149 -7
-20 1 -33 5 -29 11 8 12 181 8 178 -4z m177 -1 c0 -10 -10 -13 -37 -10 -21 2
-44 4 -50 4 -7 1 -13 6 -13 11 0 6 23 10 50 10 37 0 50 -4 50 -15z m-206 -31
c20 -8 23 -123 4 -142 -12 -12 -95 -16 -122 -6 -12 5 -16 21 -16 73 0 37 3 71
7 74 8 9 106 9 127 1z m190 -76 c-3 -5 -11 -5 -19 2 -10 8 -17 6 -28 -10 -10
-14 -17 -18 -22 -10 -4 6 -14 9 -22 6 -9 -4 -13 -1 -10 6 2 7 15 12 29 10 15
-2 29 1 32 6 3 6 15 8 26 5 11 -3 17 -9 14 -15z m43 16 c-3 -3 -12 -4 -19 -1
-8 3 -5 6 6 6 11 1 17 -2 13 -5z m58 -103 c-3 -6 -11 -11 -16 -11 -5 0 -4 6 3
14 14 16 24 13 13 -3z m-316 -20 c15 -9 4 -18 -19 -16 -8 1 -25 3 -37 3 -13 1
-23 7 -23 12 0 12 60 13 79 1z m221 -6 c0 -12 -7 -14 -27 -11 -16 2 -34 5 -40
5 -7 1 -13 6 -13 11 0 6 18 10 40 10 29 0 40 -4 40 -15z m-192 -37 c13 -13 17
-100 5 -112 -5 -4 -8 -13 -8 -19 0 -7 -7 -12 -15 -12 -9 0 -15 9 -14 23 1 24
-11 30 -19 8 -3 -7 0 -19 6 -25 8 -8 6 -11 -9 -11 -30 0 -46 20 -31 38 10 12
9 14 -3 10 -8 -3 -14 -15 -12 -27 1 -17 -3 -22 -15 -19 -15 3 -19 16 -21 66
-2 39 2 69 9 78 14 17 110 19 127 2z m220 0 c7 -7 12 -24 12 -39 0 -15 5 -31
10 -34 6 -3 10 0 10 8 0 8 9 22 20 32 11 10 20 13 20 7 0 -6 -4 -14 -10 -17
-5 -3 -10 -11 -10 -16 0 -6 4 -8 8 -5 4 2 9 -4 9 -15 2 -16 -1 -18 -11 -10
-16 14 -46 4 -46 -15 0 -9 6 -11 18 -7 15 6 15 5 3 -10 -7 -9 -17 -14 -22 -11
-5 3 -9 0 -9 -5 0 -15 -123 -14 -138 1 -7 7 -12 38 -12 70 0 44 4 59 18 67 24
14 115 14 130 -1z m442 -7 c16 -30 12 -107 -6 -125 -19 -19 -114 -22 -132 -4
-16 16 -16 135 1 141 6 3 38 6 69 6 47 1 59 -3 68 -18z m-244 -16 c32 -32 29
-71 -8 -98 -23 -17 -33 -19 -55 -11 -57 20 -64 102 -11 124 36 14 47 12 74
-15z m-436 -158 c0 -4 -2 -7 -5 -7 -3 0 -25 0 -50 0 -25 0 -45 3 -45 8 0 4 23
7 50 7 28 -1 50 -4 50 -8z m220 -4 c0 -9 -11 -11 -32 -9 -18 3 -41 5 -51 5
-10 1 -16 5 -13 10 9 14 96 8 96 -6z m230 4 c0 -9 -18 -13 -60 -14 -45 0 -60
3 -60 13 0 10 16 14 60 14 42 0 60 -4 60 -13z m225 2 c4 -6 5 -12 4 -13 -9 -7
-139 7 -139 15 0 13 128 11 135 -2z m-671 -39 c24 -9 26 -14 26 -69 0 -73 -10
-83 -87 -79 l-58 3 -3 68 c-3 62 -1 68 20 77 31 12 71 12 102 0z m246 -58 c0
-40 -5 -73 -12 -80 -7 -7 -37 -12 -68 -12 -31 0 -61 5 -68 12 -7 7 -12 36 -12
64 0 71 14 84 96 84 l64 0 0 -68z m208 56 c7 -7 12 -37 12 -68 0 -31 -5 -61
-12 -68 -7 -7 -37 -12 -68 -12 -31 0 -61 5 -68 12 -7 7 -12 37 -12 68 0 31 5
61 12 68 16 16 120 16 136 0z m216 -4 c10 -10 16 -33 16 -64 0 -64 -17 -80
-84 -80 -28 0 -57 5 -64 12 -7 7 -12 38 -12 70 0 44 4 59 18 67 27 16 108 13
126 -5z m-786 -176 c-3 -7 -17 -13 -33 -13 -16 0 -30 6 -32 13 -3 8 7 12 32
12 25 0 35 -4 33 -12z m82 2 c0 -5 -16 -10 -35 -10 -19 0 -35 5 -35 10 0 6 16
10 35 10 19 0 35 -4 35 -10z m300 0 c0 -5 -11 -10 -25 -10 -14 0 -25 5 -25 10
0 6 11 10 25 10 14 0 25 -4 25 -10z m70 0 c0 -5 -13 -10 -30 -10 -16 0 -30 5
-30 10 0 6 14 10 30 10 17 0 30 -4 30 -10z m294 -11 c-3 -5 -10 -7 -15 -3 -5
3 -7 10 -3 15 3 5 10 7 15 3 5 -3 7 -10 3 -15z m106 11 c0 -5 -20 -10 -45 -10
-25 0 -45 5 -45 10 0 6 20 10 45 10 25 0 45 -4 45 -10z"/>
<path d="M2120 4231 c0 -30 17 -34 22 -6 4 17 1 25 -8 25 -8 0 -14 -9 -14 -19z"/>
<path d="M2188 4225 c2 -14 8 -25 13 -25 5 0 9 11 9 25 0 14 -6 25 -14 25 -9
0 -12 -8 -8 -25z"/>
<path d="M2155 4229 c-10 -15 3 -25 16 -12 7 7 7 13 1 17 -6 3 -14 1 -17 -5z"/>
<path d="M3382 4838 c-7 -7 -12 -16 -12 -20 0 -5 72 -102 161 -216 88 -114
186 -240 217 -281 114 -149 499 -628 510 -635 4 -2 20 1 36 8 l29 11 -25 30
c-14 17 -96 122 -183 235 -254 330 -698 880 -710 880 -6 0 -16 -5 -23 -12z"/>
<path d="M924 4679 c-8 -14 11 -33 25 -25 6 4 11 11 11 16 0 13 -29 20 -36 9z"/>
<path d="M1070 4670 c0 -5 5 -10 11 -10 5 0 7 5 4 10 -3 6 -8 10 -11 10 -2 0
-4 -4 -4 -10z"/>
<path d="M2855 4570 c-3 -5 -1 -10 4 -10 6 0 11 5 11 10 0 6 -2 10 -4 10 -3 0
-8 -4 -11 -10z"/>
<path d="M949 4492 c-29 -31 -75 -80 -102 -109 -35 -37 -43 -50 -28 -46 11 3
18 9 15 14 -3 5 5 13 18 18 13 6 19 10 14 10 -5 1 -3 8 4 16 7 8 17 12 23 8 5
-3 7 -2 4 4 -4 5 9 24 28 41 19 16 35 35 35 41 0 6 9 11 19 11 12 0 18 7 17
18 -1 11 5 16 17 14 20 -3 23 4 3 11 -8 3 -35 -17 -67 -51z"/>
<path d="M140 4470 c0 -6 7 -10 15 -10 8 0 15 2 15 4 0 2 -7 6 -15 10 -8 3
-15 1 -15 -4z"/>
<path d="M180 4445 c0 -9 4 -14 9 -11 13 8 42 -4 35 -15 -3 -5 1 -6 9 -3 8 3
21 -1 28 -8 15 -13 39 -22 39 -13 0 3 -27 18 -60 35 -48 24 -60 27 -60 15z"/>
<path d="M310 4380 c0 -6 7 -10 15 -10 8 0 15 2 15 4 0 2 -7 6 -15 10 -8 3
-15 1 -15 -4z"/>
<path d="M353 4355 c0 -7 6 -11 14 -8 7 3 13 6 13 8 0 2 -6 5 -13 8 -8 3 -14
-1 -14 -8z"/>
<path d="M397 4339 c7 -7 15 -10 18 -7 3 3 -2 9 -12 12 -14 6 -15 5 -6 -5z"/>
<path d="M346 4321 c-4 -7 -5 -15 -2 -18 9 -9 19 4 14 18 -4 11 -6 11 -12 0z"/>
<path d="M437 4315 c3 -9 8 -14 11 -11 7 8 43 -14 38 -23 -3 -4 5 -7 17 -7 12
1 21 -4 20 -11 -2 -7 4 -10 12 -7 8 4 15 8 15 10 0 2 -27 17 -60 34 -43 21
-58 26 -53 15z"/>
<path d="M733 4267 c-28 -29 -59 -58 -69 -66 -16 -14 -16 -15 6 -25 19 -9 26
-6 46 17 13 16 24 37 24 48 0 11 10 24 23 29 12 5 18 9 13 9 -5 1 -3 8 4 16 7
8 17 12 23 8 6 -3 7 -1 3 5 -11 18 -17 14 -73 -41z"/>
<path d="M430 4270 c0 -5 5 -10 10 -10 6 0 10 5 10 10 0 6 -4 10 -10 10 -5 0
-10 -4 -10 -10z"/>
<path d="M672 4255 c0 -16 2 -22 5 -12 2 9 2 23 0 30 -3 6 -5 -1 -5 -18z"/>
<path d="M0 4231 c0 -32 14 -49 25 -30 5 7 18 -1 38 -21 17 -17 36 -29 42 -26
7 2 28 -9 47 -24 20 -16 39 -26 43 -22 3 4 12 0 18 -9 16 -21 55 -41 67 -34 5
3 11 1 15 -5 4 -6 11 -7 17 -4 6 4 8 2 4 -4 -8 -14 32 -42 50 -35 8 3 14 1 14
-4 0 -9 62 -49 69 -44 2 1 7 -1 10 -6 12 -16 71 -44 81 -38 6 3 10 2 10 -3 0
-13 49 -45 70 -46 9 -1 24 -9 34 -19 29 -28 54 -39 59 -24 4 8 6 8 6 0 1 -16
68 -56 81 -48 5 3 10 2 10 -3 0 -15 61 -51 77 -45 7 3 13 16 13 28 0 19 -15
31 -77 63 -150 77 -178 92 -188 99 -5 5 -26 16 -45 26 -19 10 -69 35 -110 57
-41 22 -80 39 -86 40 -7 0 -14 7 -18 15 -3 8 -16 15 -30 15 -14 0 -28 5 -32
11 -4 8 -9 7 -15 -2 -6 -10 -9 -8 -9 8 0 16 -9 25 -34 33 -19 6 -40 18 -46 26
-7 7 -25 14 -41 14 -17 0 -34 8 -42 21 -8 11 -21 22 -28 23 -33 6 -58 18 -63
31 -10 28 -36 17 -36 -14z"/>
<path d="M567 4245 c3 -8 9 -12 14 -9 12 7 11 11 -5 17 -10 4 -13 1 -9 -8z"/>
<path d="M614 4219 c-9 -15 -2 -18 20 -9 17 6 18 7 3 13 -9 3 -19 2 -23 -4z"/>
<path d="M4947 4075 c-9 -20 -17 -41 -16 -48 0 -7 9 8 20 32 23 53 20 66 -4
16z"/>
<path d="M1792 4071 c10 -16 15 -17 26 -8 12 9 11 12 -5 18 -30 12 -34 10 -21
-10z"/>
<path d="M1413 3963 c-18 -6 -16 -23 1 -23 17 0 30 16 19 23 -5 2 -14 2 -20 0z"/>
<path d="M1650 3962 c0 -13 39 -32 45 -22 3 5 -3 14 -14 19 -23 13 -31 14 -31
3z"/>
<path d="M4965 3875 c-16 -6 -48 -20 -70 -32 -22 -11 -51 -24 -65 -28 -14 -4
-74 -31 -135 -60 -529 -253 -554 -265 -600 -296 -103 -69 -104 -81 -60 -437
58 -456 69 -502 122 -523 48 -18 129 0 508 116 121 37 246 74 278 83 l57 16 0
143 c0 79 -1 143 -3 143 -6 0 -343 -117 -367 -128 -14 -6 -74 -28 -134 -49
-96 -34 -109 -42 -112 -63 -1 -14 0 -19 2 -12 3 6 12 12 20 12 8 0 14 6 14 14
0 8 7 16 15 20 13 5 13 2 -1 -19 -9 -13 -13 -28 -10 -34 3 -5 -1 -12 -10 -15
-21 -8 -20 -8 -38 10 -9 8 -16 11 -16 5 0 -5 5 -13 11 -17 10 -6 -171 -74
-197 -74 -7 0 -17 34 -24 88 -6 48 -27 195 -45 327 -18 132 -35 253 -37 269
-3 30 -3 30 251 143 140 62 257 111 259 108 3 -3 0 -5 -6 -5 -7 0 -12 -7 -12
-16 0 -9 -6 -14 -13 -11 -6 2 -17 -1 -24 -8 -14 -15 -5 -29 11 -16 6 5 15 9
19 9 19 0 66 25 61 33 -3 5 1 6 9 3 8 -3 49 11 92 30 42 20 81 34 85 31 5 -3
10 -1 12 4 1 6 44 28 93 50 71 31 91 45 93 62 3 19 1 21 -10 11 -8 -6 -18 -9
-22 -5 -4 4 3 14 14 23 17 13 21 25 18 61 l-3 44 -30 -10z m-335 -270 c-14 -8
-29 -14 -35 -14 -5 0 1 6 15 14 14 8 30 14 35 14 6 0 -1 -6 -15 -14z m330
-680 c0 -8 -9 -15 -20 -15 -20 0 -26 11 -13 23 12 13 33 7 33 -8z m-140 -51
c0 -8 -6 -14 -13 -14 -19 0 -27 10 -20 25 6 17 33 8 33 -11z m-145 -44 c0 -7
-6 -15 -12 -17 -8 -3 -13 4 -13 17 0 13 5 20 13 18 6 -3 12 -11 12 -18z m-131
-45 c3 -9 0 -15 -9 -15 -16 0 -27 14 -18 24 10 10 21 7 27 -9z m146 -85 c0 -5
-7 -7 -15 -4 -8 4 -12 10 -9 15 6 11 24 2 24 -11z"/>
<path d="M1650 3850 c0 -16 5 -30 11 -30 5 0 7 5 3 12 -4 7 -3 8 4 4 24 -14
34 6 13 25 -27 25 -31 24 -31 -11z"/>
<path d="M0 3667 l0 -125 51 16 c44 14 51 14 60 2 8 -11 9 -8 4 10 -6 22 -5
23 8 10 22 -23 37 -77 37 -136 0 -46 -4 -56 -24 -69 -13 -9 -27 -24 -31 -33
-4 -12 3 -9 22 9 34 31 83 62 83 52 0 -4 7 2 15 13 8 10 15 15 15 10 0 -6 6
-2 12 7 7 9 27 19 43 22 28 6 27 4 -9 -16 -89 -49 -177 -164 -223 -293 -40
-113 -62 -319 -62 -566 l0 -196 30 -54 c17 -32 26 -57 20 -63 -5 -5 -5 -24 1
-45 17 -60 5 -179 -25 -253 -27 -64 -27 -70 -27 -297 l0 -232 29 0 c36 0 152
35 205 62 69 35 86 60 86 125 0 32 11 95 24 140 14 45 28 106 31 135 9 66 11
69 40 62 12 -3 26 -1 29 4 4 6 -3 8 -16 5 -17 -3 -19 -2 -10 5 11 7 10 11 -4
16 -9 3 -19 4 -22 1 -3 -3 1 -5 8 -5 7 0 11 -3 8 -6 -6 -5 -68 22 -68 30 0 5
51 -1 124 -14 152 -28 287 19 393 134 195 213 235 591 98 918 -115 272 -359
456 -558 420 -34 -6 -71 -9 -82 -6 -12 4 -33 33 -55 77 -41 84 -130 177 -208
220 l-52 28 0 -124z m588 -239 c17 -7 32 -15 32 -18 0 -3 -30 -11 -67 -18
-156 -30 -249 -105 -353 -287 -68 -119 -90 -132 -90 -53 0 137 91 300 201 359
75 40 199 48 277 17z m-8 -207 c0 -9 5 -22 12 -29 9 -9 8 -12 -4 -12 -20 0
-51 47 -44 67 5 12 9 13 21 3 8 -7 15 -20 15 -29z m65 -1 c4 -6 1 -18 -6 -26
-10 -12 -10 -15 1 -12 8 2 15 -6 17 -17 3 -15 2 -16 -5 -7 -5 8 -13 13 -18 13
-5 -1 -9 13 -9 29 0 30 9 39 20 20z m88 -25 c21 -6 27 -13 27 -36 0 -19 -5
-29 -15 -29 -9 0 -15 9 -15 22 0 21 0 21 -15 2 -17 -22 -20 -12 -5 17 6 10 7
19 2 19 -14 0 -33 -26 -25 -33 3 -4 1 -7 -5 -7 -15 0 -16 27 -1 36 8 4 7 9 -2
15 -16 10 6 8 54 -6z m-243 -115 c24 -13 44 -74 35 -108 -3 -15 -22 -56 -42
-91 -25 -45 -38 -60 -44 -50 -5 8 0 26 13 47 l21 35 -20 16 c-44 34 -56 98
-27 139 17 24 35 27 64 12z m212 -77 c20 -18 26 -97 7 -109 -8 -4 -8 -9 0 -17
28 -28 4 -127 -30 -127 -33 0 -84 70 -64 88 4 4 10 1 12 -5 11 -30 40 -56 57
-50 27 10 18 79 -11 92 -13 5 -23 15 -23 22 0 6 10 13 23 15 28 4 36 48 12 68
-13 11 -21 11 -35 2 -24 -14 -37 2 -20 23 16 20 49 19 72 -2z m-122 -33 c0
-11 -4 -20 -10 -20 -5 0 -10 9 -10 20 0 11 5 20 10 20 6 0 10 -9 10 -20z m275
-40 c9 -18 15 -56 15 -99 0 -59 -4 -74 -23 -97 -52 -60 -102 10 -95 133 3 64
7 78 27 94 28 23 53 13 76 -31z m-280 -68 c0 -18 -20 -15 -23 4 -3 10 1 15 10
12 7 -3 13 -10 13 -16z m-154 -132 c12 0 11 -31 -1 -50 -9 -13 -12 -12 -25 4
-21 27 -20 60 1 52 9 -3 20 -6 25 -6z m-34 -147 l-5 -28 15 23 c22 32 33 27
33 -13 0 -33 -12 -46 -25 -25 -3 5 -12 7 -19 4 -18 -7 -28 23 -16 47 15 27 23
23 17 -8z m478 0 c0 -6 3 -15 8 -19 4 -4 7 -18 7 -30 0 -16 -5 -22 -15 -19
-51 16 -49 14 -29 37 11 12 13 18 7 14 -14 -8 -18 15 -6 28 9 9 28 2 28 -11z
m-231 -27 c-3 -7 2 -16 10 -19 9 -4 13 -13 10 -22 -4 -10 0 -15 10 -15 9 0 16
-7 16 -16 0 -10 -6 -14 -15 -10 -9 3 -15 0 -15 -10 0 -8 -4 -12 -10 -9 -5 3
-10 -3 -10 -15 0 -12 -5 -18 -10 -15 -6 4 -8 11 -4 16 3 6 -2 17 -12 25 -18
13 -17 14 9 10 15 -3 27 0 27 5 0 5 -4 9 -10 9 -5 0 -10 5 -10 11 0 5 5 7 10
4 6 -3 10 -1 10 4 0 6 -4 11 -10 11 -5 0 -10 14 -10 31 0 17 4 28 10 24 5 -3
7 -12 4 -19z m-27 -58 c-3 -8 -6 -5 -6 6 -1 11 2 17 5 13 3 -3 4 -12 1 -19z
m233 -45 c0 -10 -5 -25 -11 -33 -8 -12 -9 -9 -5 12 4 16 1 28 -7 31 -7 3 -5 6
6 6 10 1 17 -6 17 -16z m60 -4 c0 -5 -7 -9 -15 -9 -15 0 -19 -11 -15 -40 1 -8
-2 -11 -6 -7 -5 5 -9 21 -10 36 -1 24 3 29 22 29 13 0 24 -4 24 -9z"/>
<path d="M442 3048 c-17 -17 -15 -49 4 -76 20 -29 42 -28 54 4 19 48 -26 104
-58 72z"/>
<path d="M785 2927 c-20 -29 -20 -135 1 -165 32 -47 64 -9 64 78 0 87 -33 132
-65 87z"/>
<path d="M943 3744 c4 -4 1 -14 -5 -22 -10 -11 -8 -17 7 -28 12 -9 22 -10 30
-4 17 14 45 1 45 -20 0 -20 33 -36 50 -25 5 3 10 2 10 -3 0 -5 10 -8 22 -8 14
1 24 -6 26 -18 3 -13 0 -16 -9 -11 -8 5 -10 4 -5 -3 11 -18 31 -14 52 10 10
12 13 18 7 14 -8 -4 -13 -1 -13 8 0 9 -4 17 -10 17 -5 1 -13 2 -17 3 -5 0 -23
12 -42 25 -18 13 -44 25 -58 27 -14 1 -32 9 -41 17 -17 14 -62 34 -49 21z"/>
<path d="M138 3332 c-36 -37 -79 -89 -95 -115 -17 -25 -32 -44 -35 -42 -7 8
-9 -76 -3 -107 6 -27 10 -20 37 59 34 102 73 171 131 231 23 23 39 42 36 42
-3 0 -35 -31 -71 -68z"/>
<path d="M4851 3374 c0 -11 3 -14 6 -6 3 7 2 16 -1 19 -3 4 -6 -2 -5 -13z"/>
<path d="M4855 3321 c-3 -5 -1 -12 5 -16 5 -3 10 1 10 9 0 18 -6 21 -15 7z"/>
<path d="M4795 3295 c-25 -12 -26 -14 -5 -9 28 7 60 23 45 23 -5 0 -23 -6 -40
-14z"/>
<path d="M4891 3154 c0 -11 3 -14 6 -6 3 7 2 16 -1 19 -3 4 -6 -2 -5 -13z"/>
<path d="M4901 3094 c0 -11 3 -14 6 -6 3 7 2 16 -1 19 -3 4 -6 -2 -5 -13z"/>
<path d="M2 3010 c0 -14 2 -19 5 -12 2 6 2 18 0 25 -3 6 -5 1 -5 -13z"/>
<path d="M2143 3001 c-44 -27 -66 -64 -66 -110 0 -145 197 -182 248 -46 14 35
15 50 6 78 -27 81 -121 120 -188 78z"/>
<path d="M2723 2995 c-43 -19 -73 -69 -73 -124 0 -37 6 -49 40 -83 39 -39 42
-40 95 -36 63 5 98 31 116 85 15 47 4 94 -29 125 -54 50 -91 59 -149 33z"/>
<path d="M4345 2770 c-19 -8 -19 -9 3 -9 12 -1 22 4 22 9 0 6 -1 10 -2 9 -2 0
-12 -4 -23 -9z"/>
<path d="M1069 2648 c-2 -46 -9 -134 -13 -160 -5 -32 -3 -34 19 -12 9 9 13 24
10 35 -3 10 1 32 10 50 12 22 13 29 3 23 -8 -5 -7 1 4 18 16 24 16 27 -3 47
-25 27 -29 26 -30 -1z"/>
<path d="M2328 2580 c-27 -27 -29 -34 -23 -73 4 -23 13 -54 21 -69 15 -30 82
-88 101 -88 9 0 13 -18 13 -62 0 -51 -4 -67 -26 -96 -29 -37 -77 -62 -121 -62
-62 0 -143 71 -143 126 0 22 -4 24 -50 24 -27 0 -50 -4 -50 -8 0 -5 7 -32 16
-61 18 -62 73 -127 129 -152 83 -38 208 -17 271 46 l25 25 40 -34 c109 -93
287 -66 362 56 16 25 31 64 34 87 l6 41 -46 0 c-42 0 -46 -2 -52 -30 -8 -37
-48 -86 -86 -105 -64 -34 -154 -3 -189 65 -24 46 -28 140 -7 140 8 0 32 13 54
29 42 31 73 90 73 140 0 77 -30 91 -195 91 l-127 0 -30 -30z m252 -75 c0 -31
-47 -65 -89 -65 -32 0 -44 6 -65 31 -14 17 -26 35 -26 40 0 5 41 9 90 9 75 0
90 -3 90 -15z"/>
<path d="M3980 2143 l0 -98 113 -22 c61 -12 211 -43 332 -68 121 -25 290 -60
376 -77 86 -17 162 -34 169 -38 9 -6 1 -40 -33 -136 -45 -127 -150 -432 -189
-549 -11 -33 -23 -64 -28 -69 -7 -7 -150 24 -675 144 -452 103 -497 112 -518
103 -19 -9 -7 -14 73 -32 185 -44 667 -152 830 -187 91 -19 181 -39 200 -44
79 -20 268 -59 318 -65 l52 -6 0 521 c0 286 -2 520 -3 520 -2 0 -71 14 -152
30 -148 30 -239 38 -249 21 -5 -7 -103 -31 -148 -36 -9 0 -22 -6 -30 -11 -7
-6 -63 -10 -124 -9 -91 0 -116 4 -140 20 -48 31 -82 83 -88 135 -4 37 -2 36
-48 44 l-38 7 0 -98z"/>
<path d="M710 1587 c0 -13 33 -37 51 -37 24 0 25 16 2 23 -10 2 -26 8 -35 12
-10 4 -18 5 -18 2z"/>
<path d="M825 1560 c8 -13 365 -12 365 1 0 5 -79 9 -186 9 -124 0 -183 -3
-179 -10z"/>
<path d="M505 1520 c-16 -17 -16 -20 -3 -15 9 4 19 13 22 21 7 19 2 18 -19 -6z"/>
<path d="M916 1494 c-4 -9 -4 -19 -2 -21 8 -8 26 8 26 23 0 19 -16 18 -24 -2z"/>
<path d="M990 1498 c0 -7 5 -20 10 -28 8 -12 10 -9 10 13 0 15 -4 27 -10 27
-5 0 -10 -6 -10 -12z"/>
<path d="M942 1468 c-21 -21 -14 -38 16 -38 38 0 46 9 25 32 -19 21 -25 22
-41 6z"/>
<path d="M1287 1443 c-11 -11 -8 -22 13 -43 16 -16 24 -18 41 -10 11 6 17 15
14 21 -10 15 -25 10 -25 -8 -1 -11 -7 -4 -15 15 -15 34 -18 36 -28 25z"/>
<path d="M549 1391 c-17 -13 -23 -29 -23 -56 0 -27 6 -43 23 -56 52 -43 141
-8 141 55 0 66 -87 101 -141 57z m97 -16 c26 -26 26 -57 1 -80 -7 -5 -8 -6 -4
-1 4 5 -3 16 -14 24 -18 13 -23 13 -37 -2 -14 -14 -14 -18 -4 -25 11 -7 11 -9
-1 -14 -9 -3 -18 1 -21 9 -3 9 -10 13 -16 9 -17 -10 -4 64 15 85 24 27 51 25
81 -5z"/>
<path d="M1200 1364 c-18 -21 -1 -68 26 -72 23 -3 49 22 39 38 -9 15 -28 12
-22 -3 3 -7 -3 -13 -13 -13 -12 0 -17 9 -18 28 0 16 4 26 9 23 5 -4 9 -1 9 4
0 16 -16 13 -30 -5z"/>
<path d="M1388 1364 c-13 -13 -9 -51 6 -64 19 -15 58 -9 64 10 4 12 2 13 -9 3
-22 -21 -35 -15 -45 23 -5 20 -12 33 -16 28z"/>
<path d="M1290 1261 c-12 -23 -13 -41 -2 -41 4 0 13 14 19 30 12 33 0 41 -17
11z"/>
<path d="M1350 1224 c0 -16 -2 -17 -10 -4 -8 13 -11 13 -27 -2 -16 -17 -16
-18 10 -18 26 0 47 23 33 37 -3 4 -6 -2 -6 -13z"/>
<path d="M3295 1224 c-22 -8 -46 -16 -54 -19 -23 -9 6 -34 48 -41 20 -3 69
-15 109 -26 40 -11 80 -17 90 -14 10 4 88 -10 173 -30 85 -20 179 -42 209 -49
167 -37 593 -138 643 -152 68 -19 69 -24 27 -117 -16 -36 -27 -66 -25 -66 2 0
16 21 31 48 55 95 56 96 219 56 74 -18 110 -22 119 -15 8 7 28 6 64 -3 l52
-14 0 33 c0 23 -5 35 -17 39 -35 10 -449 107 -1028 241 -324 75 -597 138 -605
140 -8 2 -33 -3 -55 -11z"/>
<path d="M758 1213 c-13 -3 -18 -14 -18 -39 0 -32 -2 -34 -36 -34 -34 0 -35
-1 -32 -32 3 -29 7 -33 35 -36 28 -3 32 -7 35 -35 3 -29 6 -32 38 -32 32 0 35
3 38 32 3 28 7 32 35 35 28 3 32 7 35 36 3 28 0 32 -20 32 -17 0 -19 -3 -10
-9 23 -14 9 -45 -23 -51 -21 -4 -31 -12 -35 -30 -6 -23 -7 -22 -11 10 -2 19
-1 58 2 85 3 28 7 38 7 23 3 -41 22 -34 22 7 0 19 -4 35 -9 35 -5 0 -15 2 -23
4 -7 2 -21 2 -30 -1z m-71 -120 c-3 -10 -5 -4 -5 12 0 17 2 24 5 18 2 -7 2
-21 0 -30z"/>
<path d="M1093 1185 c-46 -32 -36 -102 18 -130 81 -42 160 57 99 123 -25 26
-84 30 -117 7z m88 -6 c12 -6 18 -17 15 -25 -3 -9 -1 -12 4 -9 16 10 11 -42
-6 -59 -22 -22 -31 -20 -11 2 16 17 25 43 11 29 -4 -3 -15 -2 -25 4 -19 10
-23 2 -22 -38 1 -18 -17 -16 -39 4 -30 27 -23 69 17 91 25 14 32 14 56 1z"/>
<path d="M3519 1063 c-13 -16 -12 -17 4 -4 16 13 21 21 13 21 -2 0 -10 -8 -17
-17z"/>
<path d="M3558 1063 c7 -3 16 -2 19 1 4 3 -2 6 -13 5 -11 0 -14 -3 -6 -6z"/>
<path d="M3688 1033 c7 -3 16 -2 19 1 4 3 -2 6 -13 5 -11 0 -14 -3 -6 -6z"/>
<path d="M3778 1013 c7 -3 16 -2 19 1 4 3 -2 6 -13 5 -11 0 -14 -3 -6 -6z"/>
<path d="M3818 1003 c7 -3 16 -2 19 1 4 3 -2 6 -13 5 -11 0 -14 -3 -6 -6z"/>
<path d="M3898 983 c6 -2 18 -2 25 0 6 3 1 5 -13 5 -14 0 -19 -2 -12 -5z"/>
<path d="M3948 973 c7 -3 16 -2 19 1 4 3 -2 6 -13 5 -11 0 -14 -3 -6 -6z"/>
<path d="M4028 953 c6 -2 18 -2 25 0 6 3 1 5 -13 5 -14 0 -19 -2 -12 -5z"/>
<path d="M4078 943 c7 -3 16 -2 19 1 4 3 -2 6 -13 5 -11 0 -14 -3 -6 -6z"/>
<path d="M4118 933 c7 -3 16 -2 19 1 4 3 -2 6 -13 5 -11 0 -14 -3 -6 -6z"/>
<path d="M3260 911 c-17 -32 -74 -61 -121 -62 -38 0 -41 -2 -21 -10 45 -17
123 15 147 61 9 17 13 30 11 30 -3 0 -10 -9 -16 -19z"/>
<path d="M4158 923 c7 -3 16 -2 19 1 4 3 -2 6 -13 5 -11 0 -14 -3 -6 -6z"/>
<path d="M4208 913 c7 -3 16 -2 19 1 4 3 -2 6 -13 5 -11 0 -14 -3 -6 -6z"/>
<path d="M4255 900 c11 -5 29 -8 40 -8 16 0 15 2 -5 8 -34 11 -60 11 -35 0z"/>
<path d="M4328 883 c7 -3 16 -2 19 1 4 3 -2 6 -13 5 -11 0 -14 -3 -6 -6z"/>
<path d="M4380 870 c14 -4 34 -8 45 -8 16 0 15 2 -5 8 -14 4 -34 8 -45 8 -16
0 -15 -2 5 -8z"/>
<path d="M4458 853 c7 -3 16 -2 19 1 4 3 -2 6 -13 5 -11 0 -14 -3 -6 -6z"/>
<path d="M3366 783 c-6 -14 -5 -15 5 -6 7 7 10 15 7 18 -3 3 -9 -2 -12 -12z"/>
<path d="M3052 686 c-17 -37 -15 -45 4 -18 8 12 14 27 12 33 -2 6 -9 -1 -16
-15z"/>
<path d="M2830 610 c0 -8 34 -20 59 -20 21 0 8 9 -28 20 -17 5 -31 5 -31 0z"/>
<path d="M3092 586 c-20 -34 -22 -34 -58 -24 -34 9 -40 8 -56 -13 -11 -12 -22
-29 -27 -37 -6 -11 -15 -12 -44 -4 -21 6 -37 7 -37 2 0 -4 18 -12 40 -18 41
-10 41 -10 66 29 21 33 28 38 50 33 47 -12 57 -9 77 24 11 18 17 35 14 38 -2
3 -14 -11 -25 -30z"/>
<path d="M4709 608 c17 -22 61 -23 87 -2 19 15 19 16 -1 9 -43 -16 -66 -17
-83 -4 -15 13 -16 12 -3 -3z"/>
<path d="M4450 582 c-21 -42 -22 -42 -16 -42 8 0 38 61 33 66 -2 2 -10 -8 -17
-24z"/>
<path d="M4615 544 c-14 -11 -33 -14 -60 -10 -37 4 -38 3 -21 -10 33 -24 87
-13 100 21 7 18 6 18 -19 -1z"/>
<path d="M3226 523 c-6 -14 -5 -15 5 -6 7 7 10 15 7 18 -3 3 -9 -2 -12 -12z"/>
<path d="M4865 484 c-14 -11 -33 -14 -60 -10 -37 4 -38 3 -21 -10 33 -24 87
-13 100 21 7 18 6 18 -19 -1z"/>
<path d="M4692 413 c-19 -20 -31 -24 -59 -21 -31 4 -33 3 -17 -9 10 -7 26 -13
36 -13 20 0 68 42 68 60 0 13 -1 13 -28 -17z"/>
<path d="M0 360 l0 -30 470 0 470 0 0 30 0 30 -470 0 -470 0 0 -30z"/>
<path d="M2086 374 c-4 -9 -4 -19 -1 -22 2 -3 7 3 11 12 4 9 4 19 1 22 -2 3
-7 -3 -11 -12z"/>
<path d="M2170 383 c0 -4 5 -15 10 -23 8 -13 10 -13 10 2 0 9 -4 20 -10 23 -5
3 -10 3 -10 -2z"/>
<path d="M2116 338 c-15 -21 -15 -23 4 -30 21 -8 50 -1 50 12 0 4 -9 15 -19
24 -18 16 -20 16 -35 -6z"/>
<path d="M0 60 l0 -60 1150 0 1150 0 0 60 0 60 -1150 0 -1150 0 0 -60z"/>
<path d="M3570 79 c0 -5 4 -8 9 -5 5 3 11 -3 14 -14 3 -13 14 -20 30 -20 35 0
42 15 15 34 -26 18 -68 21 -68 5z m75 -19 c3 -5 -1 -10 -9 -10 -9 0 -16 5 -16
10 0 6 4 10 9 10 6 0 13 -4 16 -10z"/>
<path d="M4318 33 c6 -2 18 -2 25 0 6 3 1 5 -13 5 -14 0 -19 -2 -12 -5z"/>
<path d="M4058 23 c7 -3 16 -2 19 1 4 3 -2 6 -13 5 -11 0 -14 -3 -6 -6z"/>
</g>
</svg>
